<svg height="500" viewBox="0 0 500 500" width="500" xmlns="http://www.w3.org/2000/svg"><path d="m276.552734 260.191406-.080078-9.779297c-.003052-.37175-.018677-.743682-.042968-1.117187 22.869598-8.440155 39.279296-31.462402 39.279296-58.539063 0-34.230865-26.226165-61.980468-58.576171-61.980468-32.350037 0-58.574219 27.749603-58.574219 61.980468 0 17.744538 7.047699 33.746247 18.341797 45.044922-2.544968 4.055146-4.03711 8.803986-4.03711 14.023438v7.320312c-43.774399-7.487427-89.223137-26.596374-89.861328-63.4375-.878517-50.714569 83.518448-73.2919 134.585938-73.197265 50.722076.093994 134.284362 22.137329 133.404297 73.197265-.756348 43.881653-64.831269 62.560181-114.439454 66.484375z" fill="#fff" fill-rule="evenodd"/><g stroke="#fff" stroke-linecap="round" stroke-linejoin="round"><path d="m24.442682-30.406738c102.845785 123.654998 102.845785 123.654998 102.845785 123.654998" fill="none" stroke-width="39.4785"/><path d="m222.335373 58.137024c-16.182892-172.575134-16.182892-172.575134-16.182892-172.575134" fill="none" stroke-width="38.49828"/><path d="m80.904366 176.35495c-166.743569-50.360382-166.743569-50.360382-166.743569-50.360382" fill="none" stroke-width="36.540173"/><path d="m564.738342 71.648651c-146.042144 67.375794-146.042144 67.375794-146.042144 67.375794" fill="none" stroke-width="39.4785"/><path d="m424.811279 234.002411c172.188721 26.279816 172.188721 26.279816 172.188721 26.279816" fill="none" stroke-width="36.540173"/><path d="m439.94223-52.739075c-102.845794 123.654938-102.845794 123.654938-102.845794 123.654938" fill="none" stroke-width="39.4785"/><path d="m69.73819 259.989014c-166.743561 50.360473-166.743561 50.360473-166.743561 50.360473" fill="none" stroke-width="36.540173"/><path d="m210.921402 551.928589c1.201736-34.707947-20.368881-68.308594-29.272781-83.008698-16.810364-27.753357-44.69104-56.170593-64.786423-82.455383-4.521362-5.913971-6.966797-23.158661 1.766907-32.393219 8.767982-9.270752 22.392822-8.938568 30.626327-4.122772 22.981781 13.442169 31.025559 23.996094 47.117355 45.939453 5.503647 7.504974 16.464524 29.554871 16.491074 46.528412v-192.59227c0-17.21138 16.208801-29.308792 32.982178-28.270462 16.773376 1.03836 30.517273 15.613647 30.626282 28.859421l1.177948 143.119033c-.518128-33.798156 2.961792-54.452758 18.501953-54.500427 15.533264-.047607 22.045746 22.646149 22.725738 55.678345-.679992-34.406464 4.455414-44.144409 20.714905-44.416473 16.259521-.272095 20.738983 22.077606 21.101776 65.619293.029877-34.314514 8.25708-49.108154 15.90213-49.473236 7.64502-.365082 26.797272 15.161102 26.919953 50.229644l.172546 49.305817c.052765 15.08432-21.94165 26.64505-22.071472 41.745209l-.380768 44.279724" fill="#fff" fill-opacity=".403226" fill-rule="evenodd" stroke-width="17.669018"/></g></svg>