<?xml version="1.0" encoding="UTF-8"?>
<!-- Generated by Pixelmator Pro 2.4.2 -->
<svg width="32" height="32" viewBox="0 0 32 32" xmlns="http://www.w3.org/2000/svg" xmlns:xlink="http://www.w3.org/1999/xlink">
    <g id="Group"/>
    <path id="Path-copy" fill="#ffffff" stroke="none" d="M 21.287323 8.17824 C 21.355598 8.421907 21.616873 8.589252 21.779776 8.774235 C 22.12586 9.167164 22.451519 9.579773 22.722445 10.028919 C 23.688971 11.631197 24.044857 13.517588 23.747368 15.359934 C 23.595543 16.300171 23.242599 17.240845 22.750053 18.056091 C 20.299847 22.111675 14.699684 23.173349 11.028307 20.117584 C 10.347078 19.550568 9.745985 18.873497 9.287413 18.11252 C 7.91843 15.840853 7.752883 12.925474 8.987852 10.555561 C 9.279348 9.99618 9.625643 9.46545 10.03895 8.988247 C 10.244254 8.751226 10.635268 8.475821 10.720322 8.173307 C 9.888857 8.295708 9.018381 8.764734 8.274096 9.136457 C 6.299174 10.122751 4.411801 11.436413 2.847689 12.99847 C 2.356486 13.488995 1.868107 13.977921 1.413449 14.502893 C 1.22954 14.715246 0.973863 14.983345 1.002161 15.286604 C 1.04347 15.728682 1.417809 16.113125 1.679319 16.447096 C 2.320388 17.265759 3.019616 18.033024 3.754323 18.768414 C 6.847096 21.864079 11.000648 24.555775 15.510105 24.668379 C 20.346884 24.789164 24.775457 22.244581 28.117945 18.905212 C 28.87649 18.14747 29.613724 17.367331 30.276045 16.523159 C 30.546808 16.177895 30.932041 15.783207 30.994967 15.331961 C 31.03933 15.013531 30.781084 14.739639 30.588346 14.516514 C 30.133928 13.990898 29.646257 13.502018 29.155447 13.010752 C 27.548292 11.402185 25.594063 10.035496 23.544556 9.053972 C 22.854593 8.723532 22.050793 8.291353 21.287323 8.17824 Z"/>
</svg>
