<svg height="32" viewBox="0 0 32 32" width="32" xmlns="http://www.w3.org/2000/svg"><g fill="#fff"><path d="m6.001654 0c-3.312896.004164-5.997489 2.688759-6.001654 6.001654v19.992912c.002082 3.314373 2.687284 6.001265 6.001654 6.005434h19.992912c3.314373-.002083 6.001265-2.687284 6.005434-6.001652v-19.996694c-.004164-3.312895-2.688759-5.99749-6.001654-6.001654zm0 2.003071h19.992912c2.237392 0 4.006144 1.764969 4.006144 3.998583v19.992912c.010196 1.065588-.408604 2.090504-1.162121 2.844023-.753519.753517-1.778433 1.172317-2.844023 1.162121h-19.992912c-1.064936.009176-2.08887-.410075-2.841566-1.163479-.752696-.753409-1.170979-1.777737-1.160797-2.842665v-19.992912c-.007101-1.063654.412294-2.085802 1.164428-2.837935.752133-.752134 1.774281-1.17153 2.837935-1.164429z"/><path d="m20.266176 9.827154c.054365.194023.262408.327274.392121.474568.275573.312873.534881.641418.75061.999055.769606 1.275834 1.052986 2.777892.816107 4.244879-.120894.748675-.401928 1.497696-.794123 2.146845-1.951004 3.229302-6.410194 4.074673-9.333568 1.641485-.542435-.451492-1.021062-.990617-1.386206-1.596552-1.090067-1.808841-1.221886-4.130243-.238528-6.017313.232107-.445413.507847-.868011.836948-1.247989.163476-.188731.474825-.408026.54255-.648905-.662063.097464-1.355189.47093-1.947833.76692-1.572554.785347-3.075395 1.831364-4.320836 3.075169-.391126.390585-.780003.779897-1.142029 1.197914-.14644.169086-.350026.382564-.327493.624037.032893.35201.330964.658126.539194.924053.510459.65187 1.067226 1.262813 1.652245 1.848377 2.462654 2.464954 5.769965 4.608248 9.360668 4.69791 3.851339.096176 7.377637-1.929975 10.03913-4.588985.603999-.603359 1.191029-1.224554 1.718409-1.896736.215599-.274918.522347-.589194.572451-.948504.035324-.253553-.170307-.471641-.323777-.649309-.361835-.418526-.750148-.807802-1.140962-1.198978-1.279715-1.280838-2.835789-2.36908-4.467734-3.150629-.549388-.263115-1.189424-.607245-1.797344-.697312z"/></g></svg>