<svg height="500" viewBox="0 0 500 500" width="500" xmlns="http://www.w3.org/2000/svg"><path d="m250 204c-42.187302-.074524-112.269302-14.818939-113-57-.744141-42.957336 70.743774-62.08017 114-62 42.963715.07962 113.745453 18.750122 113 62-.732178 42.478943-71.514801 57.075073-114 57zm.615234-7c27.401795 0 49.615235-23.505096 49.615235-52.5s-22.21344-52.5-49.615235-52.5c-27.401794 0-49.615234 23.505096-49.615234 52.5s22.21344 52.5 49.615234 52.5z" fill="#fff" fill-rule="evenodd"/><g stroke="#fff" stroke-linecap="round" stroke-linejoin="round"><path d="m62.618176-52.81543c85.210987 102.452057 85.210987 102.452057 85.210987 102.452057" fill="none" stroke-width="32.709187"/><path d="m226.578522 20.545837c-13.408036-142.983947-13.408036-142.983947-13.408036-142.983947" fill="none" stroke-width="31.897041"/><path d="m109.39846 118.493134c-138.152305-41.725159-138.152305-41.725159-138.152305-41.725159" fill="none" stroke-width="30.274687"/><path d="m510.270203 31.740662c-121.00055 55.822937-121.00055 55.822937-121.00055 55.822937" fill="none" stroke-width="32.709187"/><path d="m394.336212 166.25589c142.663788 21.77362 142.663788 21.77362 142.663788 21.77362" fill="none" stroke-width="30.274687"/><path d="m406.872681-71.318481c-85.210999 102.451995-85.210999 102.451995-85.210999 102.451995" fill="none" stroke-width="32.709187"/><path d="m100.146935 187.786591c-138.152306 41.725219-138.152306 41.725219-138.152306 41.725219" fill="none" stroke-width="30.274687"/><path d="m201.921402 499.928558c1.201736-34.707916-20.368881-68.308563-29.272781-83.008636-16.810364-27.753388-44.691033-56.170624-64.786423-82.455444-4.521362-5.913941-6.966797-23.158631 1.766907-32.393189 8.767982-9.270752 22.392822-8.938568 30.626327-4.122772 22.981781 13.442169 31.025559 23.996063 47.117355 45.939453 5.503647 7.504974 16.464524 29.554871 16.491074 46.528412v-192.592285c0-17.211365 16.208801-29.308777 32.982178-28.270447 16.773376 1.03836 30.517273 15.613647 30.626282 28.859436l1.177948 143.119018c-.518128-33.798156 2.961792-54.452758 18.501953-54.500427 15.533264-.047607 22.045746 22.646149 22.725738 55.678345-.679992-34.406464 4.455414-44.144409 20.714905-44.416473 16.259521-.272095 20.738983 22.077606 21.101776 65.619293.029877-34.314514 8.25708-49.108154 15.90213-49.473236 7.64502-.365082 26.797272 15.161102 26.919953 50.229644l.172546 49.305817c.052765 15.08432-21.94165 26.64505-22.071472 41.745209l-.380768 44.279724" fill="#fff" fill-opacity=".403226" fill-rule="evenodd" stroke-width="17.669018"/></g></svg>