<svg height="500" viewBox="0 0 500 500" width="500" xmlns="http://www.w3.org/2000/svg"><g fill="#fff" fill-rule="evenodd"><path d="m276.65625 246.636719-.183594-22.22461c-.003052-.371734-.018677-.743682-.042968-1.117187 22.869598-8.440155 39.279296-31.462402 39.279296-58.539063 0-34.230865-26.226165-61.980468-58.576171-61.980468-32.350037 0-58.574219 27.749603-58.574219 61.980468 0 17.744538 7.047699 33.746247 18.341797 45.044922-2.544968 4.055115-4.03711 8.803986-4.03711 14.023438v21.076172c-74.559448-6.646119-162.747013-29.816498-163.859375-79.808594-1.373497-61.728333 130.576065-89.207001 210.416016-89.091797 79.299988.11441 209.944275 26.943085 208.568359 89.091797-1.246704 56.31192-112.529846 78.525696-191.332031 81.544922z"/><path d="m210.921402 525.928589c1.201736-34.707947-20.368881-68.308594-29.272781-83.008698-16.810364-27.753357-44.69104-56.170593-64.786423-82.455413-4.521362-5.913941-6.966797-23.158631 1.766907-32.393189 8.767982-9.270752 22.392822-8.938568 30.626327-4.122772 22.981781 13.442169 31.025559 23.996063 47.117355 45.939453 5.503647 7.504974 16.464524 29.554871 16.491074 46.528412v-192.592285c0-17.211365 16.208801-29.308777 32.982178-28.270447 16.773376 1.03836 30.517273 15.613647 30.626282 28.859436l1.177948 143.119018c-.518128-33.798156 2.961792-54.452758 18.501953-54.500427 15.533264-.047607 22.045746 22.646149 22.725738 55.678345-.679992-34.406464 4.455414-44.144409 20.714905-44.416473 16.259521-.272095 20.738983 22.077606 21.101776 65.619293.029877-34.314514 8.25708-49.108154 15.90213-49.473236 7.64502-.365082 26.797272 15.161102 26.919953 50.229644l.172546 49.305817c.052765 15.08432-21.94165 26.64505-22.071472 41.745209l-.380768 44.279724" fill-opacity=".403226" stroke="#fff" stroke-linecap="round" stroke-linejoin="round" stroke-width="17.669018"/></g></svg>