<svg height="500" viewBox="0 0 500 500" width="500" xmlns="http://www.w3.org/2000/svg"><g stroke-linecap="round" stroke-linejoin="round"><path d="m130.989212 63.894806c52.498856 63.121155 52.498856 63.121155 52.498856 63.121155" fill="none" stroke="#fff" stroke-width="20.152266"/><path d="m276.211517 161.987c17.716462 21.456329 15.230683 52.862701-5.552215 70.148162-20.782852 17.285447-51.992752 13.904297-69.709244-7.552063-17.716461-21.456268-15.230667-52.862701 5.5522-70.148162 20.782883-17.285462 51.992798-13.904267 69.709259 7.552063z" stroke="#000" stroke-width=".966392"/><g stroke="#fff"><path d="m232.005875 109.093018c-8.260743-88.093018-8.260743-88.093018-8.260743-88.093018" fill="none" stroke-width="19.651901"/><path d="m159.810745 169.438751c-85.116211-25.707062-85.116211-25.707062-85.116211-25.707062" fill="none" stroke-width="18.652363"/><path d="m406.78952 115.990173c-74.54895 34.392762-74.54895 34.392762-74.54895 34.392762" fill="none" stroke-width="20.152266"/><path d="m335.362091 198.86557c87.895752 13.414856 87.895752 13.414856 87.895752 13.414856" fill="none" stroke-width="18.652363"/><path d="m343.085846 52.494995c-52.49884 63.121124-52.49884 63.121124-52.49884 63.121124" fill="none" stroke-width="20.152266"/><path d="m154.11084 212.130737c-85.116211 25.707093-85.116211 25.707093-85.116211 25.707093" fill="none" stroke-width="18.652363"/><path d="m238.712845 130.578278c35.640579 0 64.532944 27.935424 64.532944 62.395538 0 34.460083-28.892365 62.395492-64.532944 62.395492s-64.533005-27.935409-64.533005-62.395492c0-34.460114 28.892426-62.395538 64.533005-62.395538z" fill-opacity=".4" stroke-width="14.56092"/><path d="m201.921402 499.928558c1.201736-34.707916-20.368881-68.308563-29.272781-83.008636-16.810364-27.753388-44.691033-56.170624-64.786423-82.455444-4.521362-5.913941-6.966797-23.158631 1.766907-32.393189 8.767982-9.270752 22.392822-8.938568 30.626327-4.122772 22.981781 13.442169 31.025559 23.996063 47.117355 45.939453 5.503647 7.504974 16.464524 29.554871 16.491074 46.528412v-192.592285c0-17.211365 16.208801-29.308777 32.982178-28.270447 16.773376 1.03836 30.517273 15.613647 30.626282 28.859436l1.177948 143.119018c-.518128-33.798156 2.961792-54.452758 18.501953-54.500427 15.533264-.047607 22.045746 22.646149 22.725738 55.678345-.679992-34.406464 4.455414-44.144409 20.714905-44.416473 16.259521-.272095 20.738983 22.077606 21.101776 65.619293.029877-34.314514 8.25708-49.108154 15.90213-49.473236 7.64502-.365082 26.797272 15.161102 26.919953 50.229644l.172546 49.305817c.052765 15.08432-21.94165 26.64505-22.071472 41.745209l-.380768 44.279724" fill="#fff" fill-opacity=".403226" fill-rule="evenodd" stroke-width="17.669018"/></g></g></svg>