<svg height="187" viewBox="0 0 187 187" width="187" xmlns="http://www.w3.org/2000/svg"><path d="m42.521061 38.148102h102.460003c1.640289 0 2.970001 1.292602 2.970001 2.8871v104.425797c0 1.594497-1.329712 2.8871-2.970001 2.8871h-102.460003c-1.640286 0-2.970001-1.292603-2.970001-2.8871v-104.425797c0-1.594498 1.329715-2.8871 2.970001-2.8871z" fill="#fff"/><path d="m58.736462 38.510101h70.562198c1.129639 0 2.045395.660157 2.045395 1.474503v53.332992c0 .814347-.915756 1.474503-2.045395 1.474503h-70.562198c-1.129643 0-2.045399-.660156-2.045399-1.474503v-53.332992c0-.814346.915756-1.474503 2.045399-1.474503z" fill="#d3d3d3"/><path d="m68.882759 116.827095h46.650604c1.002785 0 1.815697.560677 1.815697 1.252304v28.719399c0 .691619-.812912 1.252304-1.815697 1.252304h-46.650604c-1.002785 0-1.815697-.560685-1.815697-1.252304v-28.719399c0-.691627.812912-1.252304 1.815697-1.252304z" fill="#fff" stroke="#000" stroke-linecap="round" stroke-linejoin="round" stroke-width="3.063"/><path d="m68.429756 116.827095h34.419602c1.002784 0 1.815704.560677 1.815704 1.252304v28.719399c0 .691619-.81292 1.252304-1.815704 1.252304h-34.419602c-1.002777 0-1.815697-.560685-1.815697-1.252304v-28.719399c0-.691627.81292-1.252304 1.815697-1.252304z" fill="#fff" stroke="#000" stroke-linecap="round" stroke-linejoin="round" stroke-width="3.063"/><path d="m71.855057 121.657097h9.958908v20.586998h-9.958908z"/></svg>